<svg xmlns="http://www.w3.org/2000/svg" viewBox="0 0 720 384" width="720" height="384" font-family="system-ui, sans-serif">
<rect width="720" height="384" fill="#ffffff"/>
<text x="16" y="28" font-size="16" font-weight="600" fill="#111">A2 — executions per payment (median of 10 runs)</text>
<text x="16" y="48" font-size="12" fill="#555">Lighter bar: replay requests fired. Darker bar: times the work was actually done.</text>
<text x="180" y="84" font-size="12" text-anchor="end" fill="#333">agenttrust 200x</text>
<rect x="190" y="64" width="440.0" height="30" fill="#dfe6ee" rx="3"/>
<rect x="190" y="64" width="2.2" height="30" fill="#1e7a46" rx="3"/>
<text x="638" y="84" font-size="12" fill="#333">1 / 200</text>
<text x="180" y="128" font-size="12" text-anchor="end" fill="#333">agenttrust 50x</text>
<rect x="190" y="108" width="110.0" height="30" fill="#dfe6ee" rx="3"/>
<rect x="190" y="108" width="2.2" height="30" fill="#1e7a46" rx="3"/>
<text x="308" y="128" font-size="12" fill="#333">1 / 50</text>
<text x="180" y="172" font-size="12" text-anchor="end" fill="#333">agenttrust 50x</text>
<rect x="190" y="152" width="110.0" height="30" fill="#dfe6ee" rx="3"/>
<rect x="190" y="152" width="2.2" height="30" fill="#1e7a46" rx="3"/>
<text x="308" y="172" font-size="12" fill="#333">1 / 50</text>
<text x="180" y="216" font-size="12" text-anchor="end" fill="#333">fixture 200x</text>
<rect x="190" y="196" width="440.0" height="30" fill="#dfe6ee" rx="3"/>
<rect x="190" y="196" width="440.0" height="30" fill="#c0392b" rx="3"/>
<text x="638" y="216" font-size="12" fill="#333">200 / 200</text>
<text x="180" y="260" font-size="12" text-anchor="end" fill="#333">fixture 50x</text>
<rect x="190" y="240" width="110.0" height="30" fill="#dfe6ee" rx="3"/>
<rect x="190" y="240" width="110.0" height="30" fill="#c0392b" rx="3"/>
<text x="308" y="260" font-size="12" fill="#333">50 / 50</text>
<text x="180" y="304" font-size="12" text-anchor="end" fill="#333">fixture 50x</text>
<rect x="190" y="284" width="110.0" height="30" fill="#dfe6ee" rx="3"/>
<rect x="190" y="284" width="110.0" height="30" fill="#c0392b" rx="3"/>
<text x="308" y="304" font-size="12" fill="#333">50 / 50</text>
<text x="16" y="364" font-size="11" fill="#777">Generated by impl/attacks/src/aggregate.ts. The fixture is a deliberately vulnerable baseline, not upstream x402.</text>
</svg>
